<svg width="99" height="40" viewBox="0 0 99 40" fill="none" xmlns="http://www.w3.org/2000/svg">
<path d="M13.152 34.512C10.688 34.512 8.48 34.112 6.528 33.312C4.576 32.512 3.008 31.328 1.824 29.76C0.672 28.192 0.064 26.304 0 24.096H8.736C8.864 25.344 9.296 26.304 10.032 26.976C10.768 27.616 11.728 27.936 12.912 27.936C14.128 27.936 15.088 27.664 15.792 27.12C16.496 26.544 16.848 25.76 16.848 24.768C16.848 23.936 16.56 23.248 15.984 22.704C15.44 22.16 14.752 21.712 13.92 21.36C13.12 21.008 11.968 20.608 10.464 20.16C8.288 19.488 6.512 18.816 5.136 18.144C3.76 17.472 2.576 16.48 1.584 15.168C0.592 13.856 0.096 12.144 0.096 10.032C0.096 6.896 1.232 4.448 3.504 2.688C5.776 0.896 8.736 0 12.384 0C16.096 0 19.088 0.896 21.36 2.688C23.632 4.448 24.848 6.912 25.008 10.08H16.128C16.064 8.992 15.664 8.144 14.928 7.536C14.192 6.896 13.248 6.576 12.096 6.576C11.104 6.576 10.304 6.848 9.696 7.392C9.088 7.904 8.784 8.656 8.784 9.648C8.784 10.736 9.296 11.584 10.32 12.192C11.344 12.8 12.944 13.456 15.12 14.16C17.296 14.896 19.056 15.6 20.4 16.272C21.776 16.944 22.96 17.92 23.952 19.2C24.944 20.48 25.44 22.128 25.44 24.144C25.44 26.064 24.944 27.808 23.952 29.376C22.992 30.944 21.584 32.192 19.728 33.12C17.872 34.048 15.68 34.512 13.152 34.512Z" fill="#CEE4FF"/>
<path d="M56.1712 11.328C56.1712 13.28 55.7233 15.072 54.8273 16.704C53.9313 18.304 52.5552 19.6 50.6992 20.592C48.8433 21.584 46.5392 22.08 43.7873 22.08H38.6992V34.176H30.4912V0.48H43.7873C46.4753 0.48 48.7473 0.943999 50.6033 1.872C52.4593 2.8 53.8512 4.08 54.7793 5.712C55.7073 7.344 56.1712 9.216 56.1712 11.328ZM43.1632 15.552C44.7313 15.552 45.8993 15.184 46.6673 14.448C47.4352 13.712 47.8193 12.672 47.8193 11.328C47.8193 9.984 47.4352 8.944 46.6673 8.208C45.8993 7.472 44.7313 7.104 43.1632 7.104H38.6992V15.552H43.1632Z" fill="#CEE4FF"/>
<path d="M82.4044 0.884629C78.7588 0.0560075 74.9457 0.383677 71.495 1.82209C68.0443 3.26051 65.1274 5.73821 63.1498 8.91082C61.1722 12.0834 60.2321 15.7933 60.4601 19.5249C60.6882 23.2564 62.0731 26.8242 64.4223 29.7324C66.7716 32.6406 69.9685 34.7446 73.5687 35.7521C77.1689 36.7596 80.9935 36.6205 84.511 35.3541C88.0285 34.0877 91.0641 31.7569 93.1958 28.6858C95.3276 25.6146 96.4496 21.9556 96.4059 18.2174L88.8574 18.3055C88.8828 20.4751 88.2316 22.5987 86.9943 24.3812C85.7571 26.1636 83.9953 27.5164 81.9538 28.2514C79.9123 28.9864 77.6926 29.0671 75.6031 28.4824C73.5136 27.8976 71.6582 26.6765 70.2947 24.9886C68.9312 23.3008 68.1275 21.2301 67.9951 19.0644C67.8628 16.8986 68.4084 14.7455 69.5562 12.9042C70.7039 11.0628 72.3968 9.62482 74.3996 8.78999C76.4023 7.95515 78.6154 7.76498 80.7312 8.2459L82.4044 0.884629Z" fill="#CEE4FF"/>
<path d="M96.1609 11.2607C94.6049 8.05783 92.222 5.32841 89.2584 3.35443L78.1713 20L96.1609 11.2607Z" fill="#6699E1"/>
</svg>
